<svg id="_x33_0" enable-background="new 0 0 64 64" height="512" viewBox="0 0 64 64" width="512" xmlns="http://www.w3.org/2000/svg"><g><circle cx="24" cy="16" r="1"/><circle cx="32" cy="16" r="1"/><path d="m29 21h-4v2h4c2.206 0 4-1.794 4-4h-2c0 1.103-.897 2-2 2z"/><path d="m27 13h2v-1.171c0-2.091-.814-4.057-2.293-5.536l-1.414 1.414c1.101 1.101 1.707 2.564 1.707 4.122z"/><path d="m31 13h2v-1.171c0-2.091-.814-4.057-2.293-5.536l-1.414 1.414c1.101 1.101 1.707 2.564 1.707 4.122z"/><path d="m60 19c1.654 0 3-1.346 3-3v-4c0-1.654-1.346-3-3-3h-12c-1.654 0-3 1.346-3 3v4c0 1.654 1.346 3 3 3h3v7.777l-4.769 10.134c-.823-2.29-2.272-4.283-4.145-5.775.595-.93.914-2.012.914-3.136 0-1.5-.563-2.914-1.589-4 1.026-1.086 1.589-2.5 1.589-4v-.538c0-1.155-.338-2.272-.979-3.233l-.517-.776c-.33-.495-.504-1.07-.504-1.664v-3.789c0-4.962-4.038-9-9-9h-8c-4.962 0-9 4.038-9 9v3.789c0 .594-.174 1.169-.504 1.664l-.517.776c-.641.96-.979 2.078-.979 3.233v.538c0 1.5.563 2.914 1.589 4-1.026 1.086-1.589 2.5-1.589 4 0 1.114.316 2.186.901 3.11-3.016 2.389-4.901 6.069-4.901 10.185v2.705c0 .338.021.67.051 1h-6.051c-1.103 0-2 .897-2 2v14c0 1.103.897 2 2 2h58c1.103 0 2-.897 2-2v-14c0-1.103-.897-2-2-2h-7.906l1.743-8.134c1.245-.365 2.163-1.504 2.163-2.866v-1.184c.314.112.648.184 1 .184 1.654 0 3-1.346 3-3v-4c0-1.654-1.346-3-3-3-.352 0-.686.072-1 .184v-4.184zm-13-3v-4c0-.551.449-1 1-1h12c.551 0 1 .449 1 1v4c0 .551-.449 1-1 1h-12c-.551 0-1-.449-1-1zm5.815 20.754-1.824 8.51c-.463 2.165-2.406 3.736-4.619 3.736-1.262 0-2.449-.492-3.341-1.384l-2.031-2.03v-4.586h3.307l-1.211 2.574 1.81.852 6.094-12.953v2.527c0 1.233.749 2.294 1.815 2.754zm-41.815 4.541c0-.099.011-.196.013-.295h4.067c.441 3.059 2.861 5.48 5.92 5.92v6.08h-1c-4.962 0-9-4.038-9-9zm11.795-11.252 3.592 2.155-2.232 2.232-2.779-4.169zm2.841-1.671c.718.411 1.536.628 2.364.628s1.646-.217 2.364-.628c.315-.18.617-.376.914-.579l.413.827-3.691 2.214-3.691-2.215.413-.827c.296.204.599.4.914.58zm8.988 1.889-2.779 4.169-2.232-2.232 3.592-2.155zm-12.624 14.739c-.342 0-.677-.035-1-.101v-11.596l2.845 4.267 1.8-1.8.252.378-1.669 5.008c-.721.303-1.228 1.015-1.228 1.844v2zm5.721-8h.558l1.333 4h-3.225zm.744-2h-.93l-.448-.672.913-.914.913.913zm-9.465 8.974c-1.207-.914-2-2.348-2-3.974v-8.503c.632-.32 1.299-.581 2-.777zm-4-8.974h-2.036c.574-.826 1.256-1.573 2.036-2.213zm0 2v2h-3.754c.145-.693.356-1.361.624-2zm8 10h2c1.103 0 2 .897 2 2s-.897 2-2 2h-2zm2 6c2.206 0 4-1.794 4-4s-1.794-4-4-4v-2h8v12h-8zm6.721-12-1.617-4.852.252-.378 1.8 1.8 2.844-4.267v9.697c0-1.103-.897-2-2-2zm5.279-10.278c.697.198 1.367.458 2 .782v13.496h-2zm4 6.278h3.117c.272.639.49 1.307.637 2h-3.754zm0-2v-2.173c.764.632 1.445 1.36 2.015 2.173zm-26-7c0-1.022.398-1.984 1.121-2.707l1.293-1.293-1.293-1.293c-.723-.723-1.121-1.685-1.121-2.707v-.538c0-.758.222-1.493.643-2.124l.517-.776c.549-.825.84-1.784.84-2.773v-3.789c0-3.86 3.14-7 7-7h8c3.86 0 7 3.14 7 7v3.789c0 .99.291 1.949.84 2.773l.517.776c.421.631.643 1.366.643 2.124v.538c0 1.022-.398 1.984-1.121 2.707l-1.293 1.293 1.293 1.293c.723.723 1.121 1.685 1.121 2.707 0 .719-.204 1.41-.575 2.01-1.35-.771-2.848-1.317-4.449-1.564l-2.313-.356-.794-1.587c2.596-2.458 4.13-5.909 4.13-9.566v-5.109c0-2.091-.814-4.057-2.293-5.536l-1.414 1.414c1.102 1.102 1.708 2.565 1.708 4.123v5.109c0 3.999-2.156 7.714-5.628 9.698-.834.477-1.91.477-2.744 0-3.472-1.984-5.628-5.699-5.628-9.698v-2.815c0-1.379.935-2.576 2.272-2.91l.97-.243-.485-1.94-.97.243c-2.229.557-3.787 2.551-3.787 4.85v2.815c0 3.656 1.534 7.108 4.13 9.566l-.794 1.587-2.313.356c-1.615.248-3.116.781-4.461 1.54-.362-.595-.562-1.277-.562-1.987zm46 33h-58v-14h6.426c1.31 4.61 5.549 8 10.574 8h1c1.103 0 2-.897 2-2v2c0 1.103.897 2 2 2h8c1.103 0 2-.897 2-2v-8h4.586l2.03 2.03c1.27 1.27 2.959 1.97 4.755 1.97 2.678 0 5.064-1.623 6.129-4h8.5zm-3-36c.551 0 1 .449 1 1v4c0 .551-.449 1-1 1s-1-.449-1-1v-4c0-.551.449-1 1-1zm-3 9c0 .551-.449 1-1 1s-1-.449-1-1v-15h2z"/><path d="m51 53h-12c-1.103 0-2 .897-2 2v2c0 1.103.897 2 2 2h12c1.103 0 2-.897 2-2v-2c0-1.103-.897-2-2-2zm-12 4v-2h12l.001 2z"/></g></svg>